# xmcd
#
# Track frame offsets: 
#        150
#        20549
#        40230
#        56198
#        79773
#        108673
#        132318
#        155570
#        175022
#        200998
#        227153
#        260373
#        262192
#
# Disc length: 3943 seconds
#
# Revision: 4
# Processed by: cddbd v1.5.2PL0 Copyright (c) Steve Scherf et al.
# Submitted via: ExactAudioCopy v1.3
#
DISCID=be0f650d
DTITLE=Walter Trout And His Band - Luther's Blues (A Tribute To Luther
DTITLE=Allison)
DYEAR=2013
DGENRE=Blues
TTITLE0=I'm Back
TTITLE1=Cherry Red Wine
TTITLE2=Move From The Hood
TTITLE3=Bad Love
TTITLE4=Big City
TTITLE5=Chicago
TTITLE6=Just As I Am
TTITLE7=Low Down And Dirty
TTITLE8=Pain In The Streets
TTITLE9=All The Kings Horses
TTITLE10=Freedom
TTITLE11=Luther Speaks
TTITLE12=When Luther Played The Blues
EXTD=
EXTT0=
EXTT1=
EXTT2=
EXTT3=
EXTT4=
EXTT5=
EXTT6=
EXTT7=
EXTT8=
EXTT9=
EXTT10=
EXTT11=
EXTT12=
PLAYORDER=
